<svg id="Layer_1" data-name="Layer 1" xmlns="http://www.w3.org/2000/svg" viewBox="0 0 472.99 484.19"><defs><style>.cls-1{fill:#773636;}.cls-2{fill:#632b2b;}.cls-3{fill:#bebf06;}.cls-4{fill:#fbebaf;}.cls-5{fill:#f9d41c;}.cls-6{fill:#a8a307;}.cls-7{fill:#ef962b;}.cls-8{fill:#ffde55;}.cls-9{font-size:56px;font-family:Mistral;}</style></defs><title>Durian 01</title><path class="cls-1" d="M126.07,100.87l-4.24.54-1.15.16-1.92.26-.07.06L115.76,105a10.73,10.73,0,0,0-1.08-2.7l-2.24.29s-44-59.58-46.72-69.84C64.1,26.74,70,22.93,76.36,20.63c1-.88,2.18-1.79,3.37-2.65a28.24,28.24,0,0,1,8.36-4.47c3.36-1,6.53-.66,8.81,2.19C103.48,24,125.2,95,125.2,95l-1.53,1.65C124.87,99.1,125.71,100.63,126.07,100.87Z" transform="translate(-11.99 -13)"/><path class="cls-2" d="M120.68,101.57l-1.92.26-.07.06L115.76,105a10.73,10.73,0,0,0-1.08-2.7l-2.24.29s-44-59.58-46.72-69.84C64.1,26.74,70,22.93,76.36,20.63c1-.88,2.18-1.79,3.37-2.65a28.24,28.24,0,0,1,8.36-4.47c-3,8.48-5.82,22.12,1.75,32.67L104,68.9,91.85,56.85Z" transform="translate(-11.99 -13)"/><path class="cls-3" d="M269.42,439.06,262,463.68,244,443.88l-21.47,31.71-12.25-36.34-25.17,23.54,2-24.66-33.85,6.43-2.66-26-39.71,4.23,9.55-25-24.52,3.55,5.74-22.07L60.86,366l21.66-13L44.24,341.55,57.17,317,31.4,319.67l11.68-25.42L12,280.27l25.12-18L12.77,249.19l25-12.48-22.16-19,26.65-3.95L23.15,187.56l29.29-13.29L37.89,154.93l28.33-6.5L55.62,115.1l24.86,4.11L72.79,89.73l25.67,8.4,11.16-16.49,11.23,22.16v0l7.82,15.4L271.87,401.7l5.49,10.81,16.3,35.62Z" transform="translate(-11.99 -13)"/><path class="cls-4" d="M271.87,401.7c-41.12,23.54-136.15-2.08-185-95.89C41,217.73,109.66,138.62,128.66,119.22Z" transform="translate(-11.99 -13)"/><path class="cls-5" d="M133.37,277.31a43.62,43.62,0,0,1-15.8-.54c-20.63-4.9-20.21-43.66-20.21-43.66-1.72-32.81,23.61-73,23.61-73,5.22-13.14,14-1.55,14-1.55l7.76,17,33,72.46C171,263.32,151.52,274.93,133.37,277.31Z" transform="translate(-11.99 -13)"/><path class="cls-5" d="M188,353.45c-11.87,3.45-24.85,4-33.44-1.93-19.8-13.64-55.27-40.88-35.06-64.6a87.84,87.84,0,0,0,17.9-.55c13.92-1.82,32.59-7.5,43.16-24.31,0,0,35.75,59.49,36.26,71C217.07,339.56,203.45,349,188,353.45Z" transform="translate(-11.99 -13)"/><path class="cls-5" d="M249.44,389c-2,2.81-8.61,10.63-17.49,3.34,0,0-26.63,2.57-58.28-26.21a57.15,57.15,0,0,0,23-2.11,42.77,42.77,0,0,0,26-21.29L250,388.05S249.83,388.41,249.44,389Z" transform="translate(-11.99 -13)"/><path class="cls-6" d="M293.66,448.13l-24.24-9.07L262,463.68,244,443.88l-21.47,31.71-12.25-36.34-25.17,23.54,2-24.66-33.85,6.43-2.66-26-39.71,4.23,9.55-25-24.52,3.55,5.74-22.07L60.86,366l21.66-13L44.24,341.55,57.17,317,31.4,319.67l11.68-25.42L12,280.27l25.12-18L12.77,249.19l25-12.48-22.16-19,26.65-3.95L23.15,187.56l29.29-13.29L37.89,154.93l28.33-6.5L55.62,115.1l24.86,4.11L72.79,89.73l25.67,8.4,11.16-16.49,11.23,22.16v0c-14.72,17-65.93,82.39-60,159.43L49.66,243s11.24,99.78,98.09,147.08L132.58,388s67.89,58.58,144.78,24.51Z" transform="translate(-11.99 -13)"/><path class="cls-7" d="M133.37,277.31a43.62,43.62,0,0,1-15.8-.54c-20.63-4.9-20.21-43.66-20.21-43.66-1.72-32.81,23.61-73,23.61-73,5.22-13.14,14-1.55,14-1.55l7.76,17-.57,1-12.57-8.66S97.08,236.55,133.37,277.31Z" transform="translate(-11.99 -13)"/><path class="cls-7" d="M154.52,351.52c-19.8-13.64-55.27-40.88-35.06-64.6a87.84,87.84,0,0,0,17.9-.55c3.84,9.23,20.56,46,48.82,64.65,0,0,.63.91,1.78,2.43C176.09,356.9,163.11,357.44,154.52,351.52Z" transform="translate(-11.99 -13)"/><path class="cls-7" d="M249.44,389c-2,2.81-8.61,10.63-17.49,3.34,0,0-26.63,2.57-58.28-26.21a57.15,57.15,0,0,0,23-2.11c8.61,9.42,21.36,21,34,23.3A96.27,96.27,0,0,0,249.44,389Z" transform="translate(-11.99 -13)"/><path class="cls-8" d="M140.73,186.76s20.37,47.5,20.94,53.47S161.28,255.77,156,254,138.76,193.76,140.73,186.76Z" transform="translate(-11.99 -13)"/><path class="cls-8" d="M181.93,278.36s29.62,50.17,26.42,53.54S171.7,305.72,181.93,278.36Z" transform="translate(-11.99 -13)"/><path class="cls-8" d="M223.9,356.56c-.28-2.41,16.19,25.1,16.19,25.1S226.6,379.8,223.9,356.56Z" transform="translate(-11.99 -13)"/><path class="cls-3" d="M300.68,423l24.1,8.45-5.26-26.28,38,1.23L335.71,375l33.7-6.6-20.9-13,25.12-23.78-19.24-17.51,26.83-29.85-25.66-7,17.31-17.88-21-8.35,13.48-41-23.16,10,13.4-38-27.28-4,17.36-19.39-27.24-5.5,7.17-33.57-29.25,9.82,3.91-27.53-24.76,13-2.13-29.27L254.44,105,244.78,74,216.87,90,210,66.73,188.05,86,167.64,57.66,156.26,80.34l-19-23.66-8.43,25.86L109,81.9l11.1,22.22h0l7.71,15.46L269.34,402.94l5.41,10.84,18.91,34.35Z" transform="translate(-11.99 -13)"/><path class="cls-4" d="M269.34,402.94c43.1-19.6,78.69-112.12,32.47-207.28-43.39-89.36-147.24-80.1-174-76.08Z" transform="translate(-11.99 -13)"/><path class="cls-5" d="M251.55,216.73a44.34,44.34,0,0,0,8.89-13.19c8.26-19.69-23-42.23-23-42.23-25.24-20.77-72.33-23.84-72.33-23.84-13.6-3.5-9.47,10.46-9.47,10.46l9,16.35,38.48,69.66C218.13,239.13,238.93,230.1,251.55,216.73Z" transform="translate(-11.99 -13)"/><path class="cls-5" d="M280.25,306.12c9.77-7.63,17.86-17.88,18.19-28.38.77-24.17-.08-69.13-31-66.67a89.45,89.45,0,0,1-11,14.25c-9.67,10.26-25.23,22.11-44.93,20.81,0,0,26.51,64.22,35.42,71.42C252,321.63,267.53,316.1,280.25,306.12Z" transform="translate(-11.99 -13)"/><path class="cls-5" d="M272.4,377.16c3.4.07,13.59-.73,13-12.27,0,0,17.78-20.17,13.43-62.94a58.08,58.08,0,0,1-15.29,17.53,42.47,42.47,0,0,1-32.37,8.58l20.14,49S271.71,377.14,272.4,377.16Z" transform="translate(-11.99 -13)"/><path class="cls-6" d="M293.66,448.13l7-25.14,24.1,8.45-5.26-26.28,38,1.23L335.71,375l33.7-6.6-20.9-13,25.12-23.78-19.24-17.51,26.83-29.85-25.66-7,17.31-17.88-21-8.35,13.48-41-23.16,10,13.4-38-27.28-4,17.36-19.39-27.24-5.5,7.17-33.57-29.25,9.82,3.91-27.53-24.76,13-2.13-29.27L254.44,105,244.78,74,216.87,90,210,66.73,188.05,86,167.64,57.66,156.26,80.34l-19-23.66-8.43,25.86L109,81.9l11.1,22.22h0c22.33-1.92,104.84-5.06,163,45.24l-9.61-21.05s73.21,68,59.8,166.69l7.28-13.59s6.81,89.86-65.83,132.37Z" transform="translate(-11.99 -13)"/><path class="cls-7" d="M251.55,216.73a44.34,44.34,0,0,0,8.89-13.19c8.26-19.69-23-42.23-23-42.23-25.24-20.77-72.33-23.84-72.33-23.84-13.6-3.5-9.47,10.46-9.47,10.46l9,16.35,1.09.1.49-15.35S240.35,163.11,251.55,216.73Z" transform="translate(-11.99 -13)"/><path class="cls-7" d="M298.44,277.74c.77-24.17-.08-69.13-31-66.67a89.45,89.45,0,0,1-11,14.25c5.12,8.58,24.66,43.89,22.92,77.91,0,0,.36,1,.89,2.89C290,298.49,298.11,288.24,298.44,277.74Z" transform="translate(-11.99 -13)"/><path class="cls-7" d="M272.4,377.16c3.4.07,13.59-.73,13-12.27,0,0,17.78-20.17,13.43-62.94a58.08,58.08,0,0,1-15.29,17.53c2.45,12.56,4.17,29.76-1.44,41.45A97.87,97.87,0,0,1,272.4,377.16Z" transform="translate(-11.99 -13)"/><path class="cls-8" d="M174.75,169.28s26,44.62,30.43,48.6,12.66,8.86,14.35,3.54S181.52,171.8,174.75,169.28Z" transform="translate(-11.99 -13)"/><path class="cls-8" d="M223.73,256.89S246.39,310.62,251,310,251.65,264.71,223.73,256.89Z" transform="translate(-11.99 -13)"/><path class="cls-8" d="M261.53,337.23c-1.76-1.65,10.53,28,10.53,28S278.53,353.14,261.53,337.23Z" transform="translate(-11.99 -13)"/><path class="cls-5" d="M484,335.14c7.67,26-31.39,84.71-60.89,93.27,0,0-38.07,74.62-136.66,58.52,0,0-106.17,39.71-139.17-37.14,0,0,5-21.83,108.31-33.22,0,0,62.89-41.12,128.74-50.11,0,0,69.63-57.77,93.86-39.93A15.69,15.69,0,0,1,484,335.14Z" transform="translate(-11.99 -13)"/><path class="cls-7" d="M484,335.14c7.67,26-31.39,84.71-60.89,93.27,0,0-38.07,74.62-136.66,58.52,0,0-106.17,39.71-139.17-37.14,0,0,57.07,38.58,119.49,19.22,0,0-11.69-7.63-12.5-33.28,0,0,31.75,49.9,83.24,29.86s70.83-49.53,70.83-49.53-12.79-20.22-15.27-32.36c0,0,26.62,34.33,45.33,12.26C449.41,383,469.41,355.52,484,335.14Z" transform="translate(-11.99 -13)"/><path class="cls-8" d="M279.57,418.18S340,378.84,366.09,380.7,316.5,425.07,279.57,418.18Z" transform="translate(-11.99 -13)"/><path class="cls-8" d="M398.93,365.91s43.89-33.83,60.58-32.67C459.51,333.24,425.6,369.5,398.93,365.91Z" transform="translate(-11.99 -13)"/><path class="cls-8" d="M237.73,427.32s-58.24,8.86-74.2,16.1c0,0,54.67,1.94,67.93-7.29S237.73,427.32,237.73,427.32Z" transform="translate(-11.99 -13)"/><text class="cls-9" transform="translate(37.73 462.23)">Durian Online</text></svg>